<svg width="16" height="16" viewBox="0 0 16 16" fill="none" xmlns="http://www.w3.org/2000/svg">
<mask id="mask0_967_15434" style="mask-type:alpha" maskUnits="userSpaceOnUse" x="0" y="0" width="16" height="16">
<rect width="16" height="16" fill="#D9D9D9"/>
</mask>
<g mask="url(#mask0_967_15434)">
<path d="M7.99925 4.66667C8.18813 4.66667 8.34658 4.60289 8.47458 4.47533C8.60213 4.34733 8.66591 4.18889 8.66591 4C8.66591 3.81111 8.60213 3.65267 8.47458 3.52467C8.34658 3.39711 8.18813 3.33333 7.99925 3.33333C7.81036 3.33333 7.65213 3.39711 7.52458 3.52467C7.39658 3.65267 7.33258 3.81111 7.33258 4C7.33258 4.18889 7.39658 4.34733 7.52458 4.47533C7.65213 4.60289 7.81036 4.66667 7.99925 4.66667ZM9.88258 4.66667H11.0492C11.3826 4.66667 11.6715 4.77778 11.9159 5C12.1604 5.22222 12.3104 5.49444 12.3659 5.81667L13.3159 12.4833C13.3715 12.8833 13.2688 13.236 13.0079 13.5413C12.7466 13.8471 12.4104 14 11.9992 14H3.99925C3.58813 14 3.25213 13.8471 2.99124 13.5413C2.72991 13.236 2.62702 12.8833 2.68258 12.4833L3.63258 5.81667C3.68813 5.49444 3.83813 5.22222 4.08258 5C4.32702 4.77778 4.61591 4.66667 4.94925 4.66667H6.11591C6.08258 4.55556 6.0548 4.44711 6.03258 4.34133C6.01036 4.236 5.99925 4.12222 5.99925 4C5.99925 3.44444 6.19369 2.97222 6.58258 2.58333C6.97147 2.19444 7.44369 2 7.99925 2C8.5548 2 9.02702 2.19444 9.41591 2.58333C9.8048 2.97222 9.99924 3.44444 9.99924 4C9.99924 4.12222 9.98813 4.236 9.96591 4.34133C9.94369 4.44711 9.91591 4.55556 9.88258 4.66667Z" fill="#1C1B1F"/>
</g>
</svg>
