<svg xmlns="http://www.w3.org/2000/svg" xmlns:xlink="http://www.w3.org/1999/xlink" viewBox="0 0 120.083 120.083" fill="#fff" fill-rule="evenodd" stroke="#000" stroke-linecap="round" stroke-linejoin="round"><use xlink:href="#A" x="1.042" y="1.042"/><symbol id="A" overflow="visible"><g stroke="none" fill="#9b9b9a" fill-rule="nonzero"><path d="M59.046 10.983c-26.45 0-47.89 21.442-47.89 47.89s21.442 47.892 47.89 47.892 47.892-21.442 47.892-47.89-21.444-47.892-47.892-47.892zm0 79.067c-17.217 0-31.175-13.958-31.175-31.175S41.829 27.7 59.046 27.7s31.175 13.958 31.175 31.175S76.262 90.05 59.046 90.05z"/><path d="M49.688 0h18.715v23.333H49.688zm0 94.583h18.715v23.333H49.688zM23.313 49.458v18.715H0V49.458zm94.667 0v18.715H94.625V49.458z"/></g><g fill="none" stroke-width="4.167"><path d="M106.654 49.527c-3.696-18.881-19.446-34.339-38.275-38.194m0 95.242c19.015-3.75 34.535-19.371 38.277-38.381m-95.323 0c3.715 18.992 19.408 34.583 38.379 38.381m0-95.242c-18.896 3.76-34.59 19.306-38.379 38.192" stroke-miterlimit="10"/><path d="M27.796 58.873c0-17.312 13.938-31.25 31.25-31.25s31.25 13.938 31.25 31.25-13.937 31.25-31.25 31.25-31.25-13.937-31.25-31.25z"/><path d="M49.712 11.333v-9.25m18.667 9.25v-9.25M49.712 115.829v-9.254m18.667 9.254v-9.254m38.275-57.048h9.25m-9.25 18.667h9.25M2.083 49.527h9.254M2.083 68.193h9.254" stroke-miterlimit="10"/></g></symbol></svg>