<svg xmlns="http://www.w3.org/2000/svg" xmlns:xlink="http://www.w3.org/1999/xlink" viewBox="0 0 151 101" fill="#fff" fill-rule="evenodd" stroke="#000" stroke-linecap="round" stroke-linejoin="round"><use xlink:href="#A" x=".5" y=".5"/><symbol id="A"><path d="M137.501 84.993H150v7.502c0 2.083-1.221 3.858-3.677 5.322h0c-2.458 1.448-5.388 2.182-8.822 2.182h0H12.502c-3.443 0-6.382-.734-8.831-2.182h0C1.221 96.353 0 94.579 0 92.495h0v-7.502h12.502 124.999 0zM32.496 79.996c-3.436 0-6.38-1.221-8.831-3.663h0c-2.449-2.456-3.67-5.402-3.67-8.838h0V12.499c0-3.434 1.221-6.38 3.67-8.829h0C26.116 1.221 29.06 0 32.496 0h0 85.001c3.434 0 6.38 1.221 8.824 3.67h0c2.456 2.449 3.675 5.395 3.675 8.829h0v54.996c0 3.436-1.221 6.382-3.675 8.838h0c-2.445 2.442-5.391 3.663-8.824 3.663h0-85.001 0zm-2.501-67.497v54.996a2.37 2.37 0 0 0 .743 1.758h0c.495.506 1.083.75 1.758.75h0 85.001c.684 0 1.27-.244 1.758-.75h0c.488-.487.748-1.073.748-1.758h0V12.499c0-.675-.26-1.261-.748-1.758h0a2.37 2.37 0 0 0-1.758-.741h0-85.001c-.675 0-1.263.244-1.758.741h0a2.4 2.4 0 0 0-.743 1.758h0zm51.256 79.996c.83 0 1.245-.408 1.245-1.254h0c0-.83-.415-1.235-1.245-1.235h0-12.499c-.839 0-1.256.408-1.256 1.235h0c0 .846.417 1.254 1.256 1.254h0 12.499 0z" fill="#002855" stroke="none"/></symbol></svg>